<svg xmlns="http://www.w3.org/2000/svg" width="1204" height="542" viewBox="0 0 1204 542">
<g>
<path d="M 581.76 359.75 L 581.50 393.50 L 567.94 393.78 C560.49,393.93 554.08,393.74 553.69,393.36 C553.31,392.98 553.00,355.39 553.00,309.83 L 553.00 227.00 L 582.00 227.00 L 582.01 233.25 L 582.02 239.50 L 584.59 236.25 C590.70,228.49 601.30,224.00 613.47,224.00 C632.58,224.00 646.41,232.77 654.94,250.28 C659.83,260.33 662.00,270.70 662.00,284.00 C662.00,315.31 647.56,337.50 624.21,342.05 C610.89,344.65 595.83,339.96 587.12,330.52 C584.83,328.03 582.75,326.00 582.49,326.00 C582.24,326.00 581.91,341.19 581.76,359.75 ZM 409.00 301.00 L 408.50 339.50 L 394.44 339.78 C386.71,339.93 380.07,339.74 379.69,339.36 C379.31,338.98 379.00,313.54 379.00,282.83 L 379.00 227.00 L 407.00 227.00 L 407.05 234.75 C407.10,242.36 407.14,242.46 408.80,240.00 C416.28,228.98 423.82,224.87 437.75,224.20 C452.91,223.48 460.30,226.37 467.94,236.04 L 471.93 241.09 L 474.14 237.79 C477.68,232.54 483.72,227.79 489.32,225.86 C495.85,223.60 507.79,223.47 515.07,225.57 C526.87,228.97 537.53,239.90 539.91,251.03 C540.60,254.22 541.00,271.65 541.00,298.08 L 541.00 340.05 L 526.75 339.78 L 512.50 339.50 L 512.00 301.00 C511.51,263.17 511.46,262.42 509.16,257.76 C506.47,252.29 502.99,249.46 497.72,248.47 C489.30,246.90 481.61,251.30 477.58,260.00 C475.62,264.24 475.47,266.69 475.00,302.00 L 474.50 339.50 L 445.50 339.50 L 445.00 299.00 C444.54,261.75 444.35,258.25 442.63,255.42 C439.95,250.99 437.42,249.76 429.86,249.22 C420.61,248.56 415.07,251.20 411.81,257.81 C409.55,262.40 409.49,263.30 409.00,301.00 ZM 329.00 340.45 C321.17,342.79 305.02,343.33 297.07,341.52 C268.23,334.95 251.74,311.65 253.26,279.60 C254.92,244.53 276.24,224.00 311.00,224.00 C322.21,224.00 333.42,226.49 341.30,230.73 C351.68,236.32 361.41,248.70 365.62,261.70 C368.05,269.20 368.64,291.94 366.61,300.01 C361.49,320.39 348.15,334.73 329.00,340.45 ZM 197.47 343.49 C188.97,345.29 174.60,345.30 166.50,343.52 C140.69,337.84 122.32,319.69 114.84,292.50 C112.95,285.60 112.64,281.89 112.60,265.50 C112.57,251.43 112.98,244.68 114.18,239.48 C122.33,204.14 144.33,184.52 178.25,182.36 C213.77,180.10 242.30,200.86 247.48,232.75 L 248.18 237.00 L 216.45 237.00 L 213.57 230.39 C207.73,216.99 197.10,210.00 182.58,210.00 C164.18,210.00 152.16,219.93 146.87,239.50 C144.00,250.10 143.70,274.86 146.30,285.31 C149.90,299.74 156.50,309.12 166.53,314.05 C170.85,316.18 172.87,316.50 182.00,316.49 C191.43,316.49 193.01,316.22 197.56,313.82 C205.59,309.59 211.67,301.88 214.94,291.75 L 216.16 288.00 L 248.04 288.00 L 247.40 290.75 C240.87,318.66 222.36,338.22 197.47,343.49 ZM 717.65 342.07 C707.26,344.04 694.32,342.43 686.00,338.14 C675.01,332.48 670.50,324.41 670.54,310.50 C670.58,299.60 672.78,292.35 677.72,286.89 C684.82,279.03 692.20,276.19 715.34,272.40 C737.41,268.78 741.00,266.77 741.00,258.02 C741.00,250.58 734.80,247.00 722.00,247.03 C711.20,247.05 704.99,250.93 702.56,259.17 L 701.28 263.50 L 674.50 263.50 L 674.68 257.98 C674.96,249.15 678.17,242.10 684.78,235.79 C694.35,226.66 706.58,223.39 727.89,224.26 C747.52,225.06 757.13,229.07 764.57,239.53 C771.02,248.61 771.50,252.66 771.50,298.50 L 771.50 339.50 L 757.83 339.78 C756.77,339.80 755.80,339.82 754.90,339.84 C748.01,340.00 745.40,340.06 744.16,338.79 C743.24,337.84 743.08,336.16 742.49,333.24 L 741.84 329.98 L 737.75 333.48 C733.36,337.24 725.58,340.56 717.65,342.07 ZM 855.74 340.61 C843.48,343.95 821.30,343.03 809.40,338.69 C793.80,333.00 783.56,321.84 781.48,308.25 L 780.82 304.00 L 811.75 304.00 L 812.31 306.78 C813.87,314.61 823.13,319.97 835.10,319.99 C848.23,320.01 855.00,316.10 855.00,308.50 C855.00,305.28 854.40,303.82 852.25,301.85 C848.81,298.69 846.72,297.92 830.00,293.64 C812.68,289.22 806.37,286.80 798.73,281.66 C787.54,274.14 783.10,262.54 786.36,249.34 C789.09,238.26 796.77,230.70 809.32,226.76 C815.56,224.80 818.66,224.50 833.00,224.50 C847.27,224.50 850.46,224.80 856.57,226.73 C869.54,230.80 877.55,239.32 880.46,252.13 C881.33,255.97 881.79,259.54 881.47,260.06 C881.14,260.58 874.83,261.00 867.43,261.00 L 853.97 261.00 L 851.57 255.57 C848.61,248.86 845.44,247.03 835.52,246.28 C821.77,245.24 813.04,249.43 814.43,256.39 C815.69,262.71 819.35,264.52 845.09,271.55 C867.98,277.80 873.15,280.09 878.78,286.49 C883.79,292.18 885.48,298.46 884.72,308.53 C883.50,324.65 873.44,335.79 855.74,340.61 ZM 959.15 341.57 C941.36,344.74 921.20,341.89 908.41,334.40 C898.76,328.74 890.00,315.69 890.00,306.96 L 890.00 304.00 L 905.03 304.00 C918.47,304.00 920.12,304.18 920.60,305.75 C923.66,315.61 929.17,319.20 942.21,319.82 C949.00,320.15 952.13,319.84 955.62,318.51 C965.39,314.78 966.85,304.06 958.19,299.61 C956.71,298.85 949.39,296.62 941.92,294.66 C924.84,290.17 919.99,288.55 912.50,284.82 C900.58,278.88 894.99,271.11 894.22,259.42 C892.71,236.34 909.18,224.00 941.50,224.00 C953.65,224.00 965.31,226.11 972.05,229.52 C979.09,233.09 985.58,240.90 987.99,248.70 C989.10,252.28 990.00,256.53 990.00,258.13 L 990.00 261.05 L 975.91 260.78 L 961.81 260.50 L 960.49 256.66 C957.84,248.92 952.28,245.99 940.31,246.01 C928.87,246.02 923.00,249.21 923.00,255.41 C923.00,261.90 929.07,265.06 954.75,271.90 C975.87,277.53 980.59,279.50 985.99,284.90 C991.45,290.36 993.53,296.30 993.37,306.09 C993.22,315.77 990.75,322.08 984.44,328.90 C978.08,335.76 970.55,339.53 959.15,341.57 ZM 1037.36 258.25 C1036.67,260.70 1035.32,260.43 1034.64,257.71 C1034.33,256.45 1031.53,243.07 1028.42,227.96 C1025.32,212.86 1022.34,200.22 1021.80,199.88 C1021.26,199.54 1008.96,196.66 994.48,193.49 C968.95,187.88 964.92,186.75 966.14,185.53 C966.45,185.21 977.46,182.45 990.61,179.38 C1003.75,176.32 1016.17,173.39 1018.22,172.88 C1019.15,172.64 1019.84,172.58 1020.42,172.30 C1022.59,171.26 1023.27,167.09 1029.16,139.01 C1033.12,120.13 1034.89,113.45 1036.00,113.24 C1037.20,113.01 1038.66,118.69 1043.32,141.73 C1046.52,157.55 1049.45,170.82 1049.83,171.21 C1050.21,171.60 1059.29,173.96 1070.01,176.45 L 1071.31 176.75 C1100.75,183.59 1106.13,184.84 1106.11,186.02 C1106.11,186.30 1105.80,186.58 1105.43,186.93 C1104.92,187.42 1092.35,190.40 1077.50,193.55 C1062.65,196.71 1050.40,199.37 1050.27,199.46 C1049.94,199.70 1043.67,228.02 1040.51,243.50 C1039.06,250.65 1037.64,257.29 1037.36,258.25 ZM 301.97 316.46 C308.01,318.33 313.54,318.33 319.83,316.46 C326.51,314.47 331.23,310.28 334.65,303.28 C337.00,298.48 337.44,296.15 337.81,286.57 C338.06,280.09 337.74,273.06 337.05,269.73 C335.49,262.24 330.70,255.19 325.00,252.02 C321.14,249.88 319.23,249.52 311.48,249.51 C300.06,249.50 294.18,252.10 289.32,259.30 C285.09,265.58 283.71,272.90 284.20,286.40 C284.52,295.26 285.08,298.57 286.94,302.79 C289.75,309.13 295.67,314.52 301.97,316.46 ZM 594.81 314.24 C598.69,316.51 600.69,316.99 606.43,316.99 C618.43,317.01 625.48,311.76 629.69,299.68 C632.48,291.69 632.13,273.49 629.03,265.50 C622.08,247.53 602.82,242.42 590.08,255.15 C583.62,261.62 581.57,268.23 581.59,282.50 C581.63,300.26 585.09,308.56 594.81,314.24 ZM 709.94 321.09 C716.10,323.05 727.89,319.40 733.84,313.70 C739.39,308.38 741.30,303.58 741.80,293.75 C742.05,288.94 741.95,285.00 741.59,285.00 C741.23,285.00 739.88,285.69 738.60,286.52 C737.33,287.36 731.15,289.20 724.89,290.60 C705.96,294.84 701.09,298.05 700.25,306.80 C699.51,314.46 702.37,318.68 709.94,321.09 ZM 1039.00 185.21 C1039.00,186.24 1085.73,186.25 1086.37,185.21 C1086.82,184.48 1052.28,175.94 1049.04,175.98 C1047.51,176.00 1039.00,183.83 1039.00,185.21 ZM 986.00 185.19 C986.00,185.63 996.35,186.00 1009.00,186.00 C1024.24,186.00 1032.00,185.65 1032.00,184.96 C1032.00,184.39 1030.26,182.05 1028.13,179.77 L 1024.25 175.62 L 1005.13 180.00 C994.61,182.40 986.00,184.74 986.00,185.19 ZM 1030.17 176.57 L 1034.50 181.28 L 1035.12 169.89 C1036.04,152.83 1036.10,133.00 1035.23,133.00 C1034.80,133.00 1032.70,141.21 1030.56,151.25 C1028.42,161.29 1026.48,170.03 1026.25,170.68 C1026.02,171.33 1027.79,173.99 1030.17,176.57 ZM 1033.01 234.25 C1033.00,234.66 1033.45,235.00 1034.00,235.00 C1034.64,235.00 1035.00,226.83 1035.00,212.50 C1035.00,200.12 1034.64,190.00 1034.20,190.00 C1033.76,190.00 1031.69,191.76 1029.59,193.91 L 1025.78 197.81 L 1029.40 215.66 C1031.39,225.47 1033.01,233.84 1033.01,234.25 ZM 1038.06 212.75 C1038.10,225.20 1038.48,233.63 1038.95,232.47 C1039.40,231.35 1041.26,223.13 1043.08,214.21 L 1046.39 197.99 L 1043.00 194.50 C1041.13,192.57 1039.25,191.00 1038.80,191.00 C1038.36,191.00 1038.03,200.79 1038.06,212.75 Z" fill="rgb(46,45,55)"/>
<path d="M 0.00 271.00 L 0.00 0.00 L 602.00 0.00 L 1204.00 0.00 L 1204.00 271.00 L 1204.00 542.00 L 602.00 542.00 L 0.00 542.00 L 0.00 271.00 ZM 581.76 359.75 C581.91,341.19 582.24,326.00 582.49,326.00 C582.75,326.00 584.83,328.03 587.12,330.52 C595.83,339.96 610.89,344.65 624.21,342.05 C647.56,337.50 662.00,315.31 662.00,284.00 C662.00,270.70 659.83,260.33 654.94,250.28 C646.41,232.77 632.58,224.00 613.47,224.00 C601.30,224.00 590.70,228.49 584.59,236.25 L 582.02 239.50 L 582.01 233.25 L 582.00 227.00 L 567.50 227.00 L 553.00 227.00 L 553.00 309.83 C553.00,355.39 553.31,392.98 553.69,393.36 C554.08,393.74 560.49,393.93 567.94,393.78 L 581.50 393.50 L 581.76 359.75 ZM 197.47 343.49 C222.36,338.22 240.87,318.66 247.40,290.75 L 248.04 288.00 L 232.10 288.00 L 216.16 288.00 L 214.94 291.75 C211.67,301.88 205.59,309.59 197.56,313.82 C193.01,316.22 191.43,316.49 182.00,316.49 C172.87,316.50 170.85,316.18 166.53,314.05 C156.50,309.12 149.90,299.74 146.30,285.31 C143.70,274.86 144.00,250.10 146.87,239.50 C152.16,219.93 164.18,210.00 182.58,210.00 C197.10,210.00 207.73,216.99 213.57,230.39 L 216.45 237.00 L 232.31 237.00 L 248.18 237.00 L 247.48 232.75 C242.30,200.86 213.77,180.10 178.25,182.36 C144.33,184.52 122.33,204.14 114.18,239.48 C112.98,244.68 112.57,251.43 112.60,265.50 C112.64,281.89 112.95,285.60 114.84,292.50 C122.32,319.69 140.69,337.84 166.50,343.52 C174.60,345.30 188.97,345.29 197.47,343.49 ZM 329.00 340.45 C348.15,334.73 361.49,320.39 366.61,300.01 C368.64,291.94 368.05,269.20 365.62,261.70 C361.41,248.70 351.68,236.32 341.30,230.73 C333.42,226.49 322.21,224.00 311.00,224.00 C276.24,224.00 254.92,244.53 253.26,279.60 C251.74,311.65 268.23,334.95 297.07,341.52 C305.02,343.33 321.17,342.79 329.00,340.45 ZM 717.65 342.07 C725.58,340.56 733.36,337.24 737.75,333.48 L 741.84 329.98 L 742.49 333.24 C743.98,340.61 742.74,340.08 757.83,339.78 L 771.50 339.50 L 771.50 298.50 C771.50,252.66 771.02,248.61 764.57,239.53 C757.13,229.07 747.52,225.06 727.89,224.26 C706.58,223.39 694.35,226.66 684.78,235.79 C678.17,242.10 674.96,249.15 674.68,257.98 L 674.50 263.50 L 687.89 263.50 L 701.28 263.50 L 702.56 259.17 C704.99,250.93 711.20,247.05 722.00,247.03 C734.80,247.00 741.00,250.58 741.00,258.02 C741.00,266.77 737.41,268.78 715.34,272.40 C692.20,276.19 684.82,279.03 677.72,286.89 C672.78,292.35 670.58,299.60 670.54,310.50 C670.50,324.41 675.01,332.48 686.00,338.14 C694.32,342.43 707.26,344.04 717.65,342.07 ZM 855.74 340.61 C873.44,335.79 883.50,324.65 884.72,308.53 C885.48,298.46 883.79,292.18 878.78,286.49 C873.15,280.09 867.98,277.80 845.09,271.55 C819.35,264.52 815.69,262.71 814.43,256.39 C813.04,249.43 821.77,245.24 835.52,246.28 C845.44,247.03 848.61,248.86 851.57,255.57 L 853.97 261.00 L 867.43 261.00 C874.83,261.00 881.14,260.58 881.47,260.06 C881.79,259.54 881.33,255.97 880.46,252.13 C877.55,239.32 869.54,230.80 856.57,226.73 C850.46,224.80 847.27,224.50 833.00,224.50 C818.66,224.50 815.56,224.80 809.32,226.76 C796.77,230.70 789.09,238.26 786.36,249.34 C783.10,262.54 787.54,274.14 798.73,281.66 C806.37,286.80 812.68,289.22 830.00,293.64 C846.72,297.92 848.81,298.69 852.25,301.85 C854.40,303.82 855.00,305.28 855.00,308.50 C855.00,316.10 848.23,320.01 835.10,319.99 C823.13,319.97 813.87,314.61 812.31,306.78 L 811.75 304.00 L 796.29 304.00 L 780.82 304.00 L 781.48 308.25 C783.56,321.84 793.80,333.00 809.40,338.69 C821.30,343.03 843.48,343.95 855.74,340.61 ZM 959.15 341.57 C970.55,339.53 978.08,335.76 984.44,328.90 C990.75,322.08 993.22,315.77 993.37,306.09 C993.53,296.30 991.45,290.36 985.99,284.90 C980.59,279.50 975.87,277.53 954.75,271.90 C929.07,265.06 923.00,261.90 923.00,255.41 C923.00,249.21 928.87,246.02 940.31,246.01 C952.28,245.99 957.84,248.92 960.49,256.66 L 961.81 260.50 L 975.91 260.78 L 990.00 261.05 L 990.00 258.13 C990.00,256.53 989.10,252.28 987.99,248.70 C985.58,240.90 979.09,233.09 972.05,229.52 C965.31,226.11 953.65,224.00 941.50,224.00 C909.18,224.00 892.71,236.34 894.22,259.42 C894.99,271.11 900.58,278.88 912.50,284.82 C919.99,288.55 924.84,290.17 941.92,294.66 C949.39,296.62 956.71,298.85 958.19,299.61 C966.85,304.06 965.39,314.78 955.62,318.51 C952.13,319.84 949.00,320.15 942.21,319.82 C929.17,319.20 923.66,315.61 920.60,305.75 C920.12,304.18 918.47,304.00 905.03,304.00 L 890.00 304.00 L 890.00 306.96 C890.00,315.69 898.76,328.74 908.41,334.40 C921.20,341.89 941.36,344.74 959.15,341.57 ZM 409.00 301.00 C409.49,263.30 409.55,262.40 411.81,257.81 C415.07,251.20 420.61,248.56 429.86,249.22 C437.42,249.76 439.95,250.99 442.63,255.42 C444.35,258.25 444.54,261.75 445.00,299.00 L 445.50 339.50 L 460.00 339.50 L 474.50 339.50 L 475.00 302.00 C475.47,266.69 475.62,264.24 477.58,260.00 C481.61,251.30 489.30,246.90 497.72,248.47 C502.99,249.46 506.47,252.29 509.16,257.76 C511.46,262.42 511.51,263.17 512.00,301.00 L 512.50 339.50 L 526.75 339.78 L 541.00 340.05 L 541.00 298.08 C541.00,271.65 540.60,254.22 539.91,251.03 C537.53,239.90 526.87,228.97 515.07,225.57 C507.79,223.47 495.85,223.60 489.32,225.86 C483.72,227.79 477.68,232.54 474.14,237.79 L 471.93 241.09 L 467.94 236.04 C460.30,226.37 452.91,223.48 437.75,224.20 C423.82,224.87 416.28,228.98 408.80,240.00 C407.14,242.46 407.10,242.36 407.05,234.75 L 407.00 227.00 L 393.00 227.00 L 379.00 227.00 L 379.00 282.83 C379.00,313.54 379.31,338.98 379.69,339.36 C380.07,339.74 386.71,339.93 394.44,339.78 L 408.50 339.50 L 409.00 301.00 ZM 1037.36 258.25 C1037.64,257.29 1039.06,250.65 1040.51,243.50 C1043.67,228.02 1049.94,199.70 1050.27,199.46 C1050.40,199.37 1062.65,196.71 1077.50,193.55 C1092.35,190.40 1104.92,187.42 1105.43,186.93 C1107.35,185.10 1107.77,185.22 1070.01,176.45 C1059.29,173.96 1050.21,171.60 1049.83,171.21 C1049.45,170.82 1046.52,157.55 1043.32,141.73 C1038.66,118.69 1037.20,113.01 1036.00,113.24 C1034.89,113.45 1033.12,120.13 1029.16,139.01 C1021.69,174.61 1022.61,171.77 1018.22,172.88 C1016.17,173.39 1003.75,176.32 990.61,179.38 C977.46,182.45 966.45,185.21 966.14,185.53 C964.92,186.75 968.95,187.88 994.48,193.49 C1008.96,196.66 1021.26,199.54 1021.80,199.88 C1022.34,200.22 1025.32,212.86 1028.42,227.96 C1031.53,243.07 1034.33,256.45 1034.64,257.71 C1035.32,260.43 1036.67,260.70 1037.36,258.25 ZM 594.81 314.24 C585.09,308.56 581.63,300.26 581.59,282.50 C581.57,268.23 583.62,261.62 590.08,255.15 C602.82,242.42 622.08,247.53 629.03,265.50 C632.13,273.49 632.48,291.69 629.69,299.68 C625.48,311.76 618.43,317.01 606.43,316.99 C600.69,316.99 598.69,316.51 594.81,314.24 ZM 301.97 316.46 C295.67,314.52 289.75,309.13 286.94,302.79 C285.08,298.57 284.52,295.26 284.20,286.40 C283.71,272.90 285.09,265.58 289.32,259.30 C294.18,252.10 300.06,249.50 311.48,249.51 C319.23,249.52 321.14,249.88 325.00,252.02 C330.70,255.19 335.49,262.24 337.05,269.73 C337.74,273.06 338.06,280.09 337.81,286.57 C337.44,296.15 337.00,298.48 334.65,303.28 C331.23,310.28 326.51,314.47 319.83,316.46 C313.54,318.33 308.01,318.33 301.97,316.46 ZM 709.94 321.09 C702.37,318.68 699.51,314.46 700.25,306.80 C701.09,298.05 705.96,294.84 724.89,290.60 C731.15,289.20 737.33,287.36 738.60,286.52 C739.88,285.69 741.23,285.00 741.59,285.00 C741.95,285.00 742.05,288.94 741.80,293.75 C741.30,303.58 739.39,308.38 733.84,313.70 C727.89,319.40 716.10,323.05 709.94,321.09 ZM 1033.01 234.25 C1033.01,233.84 1031.39,225.47 1029.40,215.66 L 1025.78 197.81 L 1029.59 193.91 C1031.69,191.76 1033.76,190.00 1034.20,190.00 C1034.64,190.00 1035.00,200.12 1035.00,212.50 C1035.00,226.83 1034.64,235.00 1034.00,235.00 C1033.45,235.00 1033.00,234.66 1033.01,234.25 ZM 1038.06 212.75 C1038.03,200.79 1038.36,191.00 1038.80,191.00 C1039.25,191.00 1041.13,192.57 1043.00,194.50 L 1046.39 197.99 L 1043.08 214.21 C1041.26,223.13 1039.40,231.35 1038.95,232.47 C1038.48,233.63 1038.10,225.20 1038.06,212.75 ZM 986.00 185.19 C986.00,184.74 994.61,182.40 1005.13,180.00 L 1024.25 175.62 L 1028.13 179.77 C1030.26,182.05 1032.00,184.39 1032.00,184.96 C1032.00,185.65 1024.24,186.00 1009.00,186.00 C996.35,186.00 986.00,185.63 986.00,185.19 ZM 1039.00 185.21 C1039.00,183.83 1047.51,176.00 1049.04,175.98 C1052.28,175.94 1086.82,184.48 1086.37,185.21 C1085.73,186.25 1039.00,186.24 1039.00,185.21 ZM 1030.17 176.57 C1027.79,173.99 1026.02,171.33 1026.25,170.68 C1026.48,170.03 1028.42,161.29 1030.56,151.25 C1032.70,141.21 1034.80,133.00 1035.23,133.00 C1036.10,133.00 1036.04,152.83 1035.12,169.89 L 1034.50 181.28 L 1030.17 176.57 Z" fill="rgb(254,254,254)"/>
</g>
</svg>
